<svg width="36" height="42" viewBox="0 0 36 42" fill="none" xmlns="http://www.w3.org/2000/svg">
<path d="M18 42.0001C15.5 42.0001 13.1583 41.5334 10.975 40.6001C8.79167 39.6667 6.88333 38.3834 5.25 36.7501C3.61667 35.1167 2.33333 33.2084 1.4 31.0251C0.466667 28.8417 0 26.5001 0 24.0001C0 21.5001 0.466667 19.1584 1.4 16.9751C2.33333 14.7917 3.61667 12.8834 5.25 11.2501C6.88333 9.61672 8.79167 8.33339 10.975 7.40006C13.1583 6.46672 15.5 6.00005 18 6.00005H19.15L16.3 3.15005C16.0333 2.88339 15.9 2.54172 15.9 2.12505C15.9 1.70839 16.0275 1.36672 16.2825 1.10005C16.5608 0.833388 16.9 0.691721 17.3 0.675055C17.7 0.658388 18.0333 0.783388 18.3 1.05005L23.6 6.35006C23.9 6.65006 24.05 7.00006 24.05 7.40006C24.05 7.80006 23.9 8.15006 23.6 8.45006L18.35 13.7001C18.05 14.0001 17.7 14.1501 17.3 14.1501C16.9 14.1501 16.5435 14.0001 16.2305 13.7001C15.9435 13.4001 15.8 13.0501 15.8 12.6501C15.8 12.2501 15.95 11.9001 16.25 11.6001L18.85 9.00006H17.75C13.5833 9.00006 10.0833 10.4554 7.25 13.3661C4.41667 16.2767 3 19.8214 3 24.0001C3 28.1787 4.45533 31.7234 7.366 34.6341C10.2767 37.5447 13.8213 39.0001 18 39.0001C22.1787 39.0001 25.7233 37.5447 28.634 34.6341C31.5447 31.7234 33 28.1787 33 24.0001C33 23.5751 33.1447 23.2187 33.434 22.9311C33.723 22.6437 34.0813 22.5001 34.509 22.5001C34.9363 22.5001 35.2917 22.6437 35.575 22.9311C35.8583 23.2187 36 23.5751 36 24.0001C36 26.5001 35.5333 28.8417 34.6 31.0251C33.6667 33.2084 32.3833 35.1167 30.75 36.7501C29.1167 38.3834 27.2083 39.6667 25.025 40.6001C22.8417 41.5334 20.5 42.0001 18 42.0001ZM12 19.9001H10.5C10.1533 19.9001 9.86667 19.7814 9.64 19.5441C9.41333 19.3071 9.3 19.0071 9.3 18.6441C9.3 18.2814 9.418 17.9917 9.654 17.7751C9.89033 17.5584 10.189 17.4501 10.55 17.4501H13.3C13.6667 17.4501 13.9583 17.5584 14.175 17.7751C14.3917 17.9917 14.5 18.2834 14.5 18.6501V29.2501C14.5 29.6111 14.3813 29.9097 14.144 30.1461C13.907 30.3821 13.607 30.5001 13.244 30.5001C12.8813 30.5001 12.5833 30.3821 12.35 30.1461C12.1167 29.9097 12 29.6111 12 29.2501V19.9001ZM19.35 30.5001C18.7267 30.5001 18.2042 30.2892 17.7825 29.8676C17.3608 29.4459 17.15 28.9234 17.15 28.3001V19.6501C17.15 19.0267 17.3608 18.5042 17.7825 18.0826C18.2042 17.6609 18.7267 17.4501 19.35 17.4501H23.5C24.1233 17.4501 24.6458 17.6609 25.0675 18.0826C25.4892 18.5042 25.7 19.0267 25.7 19.6501V28.3001C25.7 28.9234 25.4892 29.4459 25.0675 29.8676C24.6458 30.2892 24.1233 30.5001 23.5 30.5001H19.35ZM19.65 28.0001H23.2V19.9001H19.65V28.0001Z" fill="white"/>
</svg>
