<svg width="25" height="31" viewBox="0 0 25 31" fill="none" xmlns="http://www.w3.org/2000/svg">
<path d="M0.666504 28.95V2.69995C0.666504 2.15551 0.841504 1.72773 1.1915 1.41662C1.5415 1.10551 1.94984 0.949951 2.4165 0.949951C2.57206 0.949951 2.72762 0.969396 2.88317 1.00828C3.03873 1.04717 3.19428 1.10551 3.34984 1.18328L23.9998 14.3666C24.2721 14.5611 24.4762 14.775 24.6123 15.0083C24.7484 15.2416 24.8165 15.5138 24.8165 15.825C24.8165 16.1361 24.7484 16.4083 24.6123 16.6416C24.4762 16.875 24.2721 17.0888 23.9998 17.2833L3.34984 30.4666C3.19428 30.5444 3.03873 30.6027 2.88317 30.6416C2.72762 30.6805 2.57206 30.6999 2.4165 30.6999C1.94984 30.6999 1.5415 30.5444 1.1915 30.2333C0.841504 29.9222 0.666504 29.4944 0.666504 28.95Z" fill="white"/>
</svg>
