<svg width="36" height="42" viewBox="0 0 36 42" fill="none" xmlns="http://www.w3.org/2000/svg">
<path d="M12 19.8999H10.5C10.1533 19.8999 9.86667 19.7812 9.64 19.5439C9.41333 19.3069 9.3 19.0069 9.3 18.6439C9.3 18.2812 9.418 17.9916 9.654 17.7749C9.89033 17.5582 10.189 17.4499 10.55 17.4499H13.3C13.6667 17.4499 13.9583 17.5582 14.175 17.7749C14.3917 17.9916 14.5 18.2832 14.5 18.6499V29.2499C14.5 29.6109 14.3813 29.9096 14.144 30.1459C13.907 30.3819 13.607 30.4999 13.244 30.4999C12.8813 30.4999 12.5833 30.3819 12.35 30.1459C12.1167 29.9096 12 29.6109 12 29.2499V19.8999ZM19.35 30.4999C18.7267 30.4999 18.2042 30.2891 17.7825 29.8674C17.3608 29.4457 17.15 28.9232 17.15 28.2999V19.6499C17.15 19.0266 17.3608 18.5041 17.7825 18.0824C18.2042 17.6607 18.7267 17.4499 19.35 17.4499H23.5C24.1233 17.4499 24.6458 17.6607 25.0675 18.0824C25.4892 18.5041 25.7 19.0266 25.7 19.6499V28.2999C25.7 28.9232 25.4892 29.4457 25.0675 29.8674C24.6458 30.2891 24.1233 30.4999 23.5 30.4999H19.35ZM19.65 27.9999H23.2V19.8999H19.65V27.9999ZM18 41.9999C15.5 41.9999 13.1583 41.5332 10.975 40.5999C8.79167 39.6666 6.88333 38.3832 5.25 36.7499C3.61667 35.1166 2.33333 33.2082 1.4 31.0249C0.466667 28.8416 0 26.4999 0 23.9999C0 23.5749 0.144666 23.2186 0.434 22.9309C0.723 22.6436 1.08133 22.4999 1.509 22.4999C1.93633 22.4999 2.29167 22.6436 2.575 22.9309C2.85833 23.2186 3 23.5749 3 23.9999C3 28.1786 4.45533 31.7232 7.366 34.6339C10.2767 37.5446 13.8213 38.9999 18 38.9999C22.1787 38.9999 25.7233 37.5446 28.634 34.6339C31.5447 31.7232 33 28.1786 33 23.9999C33 19.8212 31.5833 16.2766 28.75 13.3659C25.9167 10.4552 22.4167 8.9999 18.25 8.9999H17.15L19.75 11.5999C20.05 11.8999 20.2 12.2499 20.2 12.6499C20.2 13.0499 20.0565 13.3999 19.7695 13.6999C19.4565 13.9999 19.1 14.1499 18.7 14.1499C18.3 14.1499 17.95 13.9999 17.65 13.6999L12.4 8.4499C12.1 8.1499 11.95 7.7999 11.95 7.3999C11.95 6.9999 12.1 6.6499 12.4 6.3499L17.7 1.0499C17.9667 0.783236 18.3083 0.649902 18.725 0.649902C19.1417 0.649902 19.4892 0.783236 19.7675 1.0499C20.0225 1.31657 20.15 1.65824 20.15 2.0749C20.15 2.49157 20.0167 2.83324 19.75 3.0999L16.85 5.9999H18C20.5 5.9999 22.8417 6.46657 25.025 7.3999C27.2083 8.33324 29.1167 9.61657 30.75 11.2499C32.3833 12.8832 33.6667 14.7916 34.6 16.9749C35.5333 19.1582 36 21.4999 36 23.9999C36 26.4999 35.5333 28.8416 34.6 31.0249C33.6667 33.2082 32.3833 35.1166 30.75 36.7499C29.1167 38.3832 27.2083 39.6666 25.025 40.5999C22.8417 41.5332 20.5 41.9999 18 41.9999Z" fill="white"/>
</svg>
